<?xml version="1.0" encoding="utf-8"?>
<!-- Generator: Adobe Illustrator 27.2.0, SVG Export Plug-In . SVG Version: 6.00 Build 0)  -->
<svg version="1.1" id="Layer_1" xmlns="http://www.w3.org/2000/svg" xmlns:xlink="http://www.w3.org/1999/xlink" x="0px" y="0px"
	 viewBox="0 0 77.64 98.74" style="enable-background:new 0 0 77.64 98.74;" xml:space="preserve">
<style type="text/css">
	.st0{fill:#010101;}
</style>
<path class="st0" d="M55.59,65.67c-0.01-0.05-0.07-0.58-0.75-0.96l-5.82-2.4c-0.01,0-0.02-0.01-0.03-0.01v-2.87
	c3.88-3.24,7.31-7.94,8.26-13.4c3.37-0.09,6.08-2.86,6.08-6.25c0-2.04-0.98-3.85-2.49-4.99c0.45-1.99,0.71-4.06,0.78-6.19
	c0.26-0.22,0.41-0.55,0.42-0.9c0.01-0.37,0.1-5.32,0.13-9.27c0.04-5.65-3.12-11.35-7.7-13.86C48.88,1.49,43.76,0,38.81,0
	S28.74,1.49,23.15,4.56c-4.58,2.52-7.74,8.22-7.7,13.86c0.03,3.94,0.12,8.9,0.13,9.27c0.01,0.35,0.17,0.67,0.42,0.9
	c0.07,2.14,0.34,4.21,0.78,6.19c-1.51,1.14-2.49,2.96-2.49,4.99c0,3.39,2.71,6.16,6.08,6.25c0.95,5.45,4.38,10.15,8.26,13.4v2.88
	c-0.01,0-0.02,0.01-0.03,0.01l-5.82,2.4c-0.35,0.14-0.61,0.54-0.71,0.91C22.07,65.64,11.07,69.26,5.75,77
	c-4.66,6.59-5.77,15-5.77,19.67c0,0.68,0.55,1.24,1.24,1.24H76.4c0.68,0,1.24-0.55,1.24-1.24C77.64,87.22,74.54,72.02,55.59,65.67
	L55.59,65.67z M53.54,69.1l0.87-1.2l4.41,1.69v16.39h-5.27L53.54,69.1z M52.44,66.4l-7.76,10.71l-3.98-3.71
	c1.92-1.95,6.39-6.5,8.18-8.46L52.44,66.4z M44.02,79.88c0.89,0.72,1.54,0.15,1.85-0.18l5.21-7.19v13.46H26.55V72.52l5.21,7.19
	c0.72,0.94,1.62,0.39,1.85,0.18l5.2-4.86L44.02,79.88z M31.12,63.87v-2.61c2.8,1.83,5.6,2.88,7.7,2.89
	c2.09-0.01,4.89-1.06,7.69-2.89v2.6c-1.89,2.01-5.56,5.76-7.69,7.93C36.68,69.64,33.01,65.89,31.12,63.87z M60.85,39.78
	c0,1.94-1.47,3.55-3.36,3.76c0-0.13,0.88-7.31,0.88-7.31C59.82,36.77,60.85,38.15,60.85,39.78L60.85,39.78z M24.35,6.73
	c5.21-2.87,9.95-4.26,14.47-4.26c4.52,0,9.25,1.39,14.47,4.26c3.82,2.1,6.45,6.9,6.42,11.68c-0.02,2.36-0.06,5.08-0.09,6.96
	c-5.82-3.61-13.72-5.88-20.8-5.88c-7.66,0-14.8,2.02-20.8,5.85c-0.03-1.87-0.07-4.58-0.09-6.93C17.89,13.63,20.53,8.83,24.35,6.73
	L24.35,6.73z M16.78,39.78c0-1.63,1.03-3.01,2.47-3.55c0,0,0.88,7.17,0.88,7.31C18.25,43.33,16.78,41.72,16.78,39.78L16.78,39.78z
	 M21.04,32.62l-1.27-5.46c5.51-3.41,12.03-5.2,19.04-5.2c6.46,0,13.65,2.01,19.03,5.22l-1.26,5.43c-1.66,2.64-4.36,1.83-5.47,1.2
	c-3.59-2.31-7.85-3.53-12.3-3.53s-8.71,1.22-12.3,3.53C23.4,35.53,21.46,33.53,21.04,32.62L21.04,32.62z M22.6,43.07
	c0-0.05-0.83-6.67-0.83-6.67c2.39,1.07,4.54,0.49,6.08-0.5c3.19-2.05,6.99-3.14,10.96-3.14c3.98,0,7.77,1.08,10.96,3.14
	c1.06,0.68,3.31,1.73,6.08,0.5c0,0-0.83,6.61-0.83,6.67c0,10.7-11.38,18.59-16.21,18.62C33.98,61.65,22.6,53.77,22.6,43.07
	L22.6,43.07z M28.74,64.94c1.79,1.96,6.26,6.51,8.18,8.46l-3.98,3.71L25.18,66.4L28.74,64.94z M18.81,69.59l4.41-1.69l0.87,1.2
	v16.88l-5.27,0L18.81,69.59z M12.93,95.44H2.48c0.37-13.14,6.68-20.48,13.85-24.57v15.88c0,0.01-0.01,0.01-0.01,0.02L12.93,95.44z
	 M15.58,95.44l2.74-6.98H59.3l2.74,6.98H15.58z M64.7,95.44l-3.4-8.67c0-0.01-0.01-0.01-0.01-0.02V70.87
	c7.17,4.09,13.48,11.43,13.85,24.57L64.7,95.44z"/>
<path class="st0" d="M33.26,41.51c0,1.1-0.89,2-2,2c-1.1,0-2-0.89-2-2c0-1.1,0.89-2,2-2C32.37,39.52,33.26,40.41,33.26,41.51"/>
<path class="st0" d="M47.13,39.67c1.02,0.42,1.5,1.59,1.08,2.61c-0.42,1.02-1.59,1.5-2.61,1.08c-1.02-0.42-1.5-1.59-1.08-2.61
	C44.94,39.73,46.11,39.25,47.13,39.67"/>
<path class="st0" d="M44.85,52.08l-1.97-1.49c-1.1,1.45-2.54,2.25-4.07,2.25c-1.53,0-2.97-0.8-4.07-2.25l-1.97,1.49
	c1.55,2.05,3.75,3.23,6.04,3.23S43.3,54.13,44.85,52.08L44.85,52.08z"/>
<path class="st0" d="M29.25,17.31l-3.16-1.83l-1.24,2.14l3.78,2.18c0.19,0.11,0.81,0.31,1.24,0l3.7-2.14h10.48l3.7,2.14
	c0.19,0.11,0.74,0.37,1.24,0l3.78-2.18c0.38-0.22,0.62-0.63,0.62-1.07v-4.37c0-0.44-0.24-0.85-0.62-1.07l-3.78-2.18
	c-0.38-0.22-0.85-0.22-1.24,0l-3.7,2.14H33.57l-3.7-2.14c-0.38-0.22-0.85-0.22-1.24,0l-3.78,2.18l1.24,2.14l3.16-1.83l2.54,1.47
	v2.94L29.25,17.31z M45.83,12.9l2.54-1.47l2.54,1.47v2.94l-2.54,1.47l-2.54-1.47V12.9z M34.27,13.54h9.09v1.65h-9.09V13.54z"/>
</svg>
