<?xml version="1.0" encoding="utf-8"?>
<!-- Generator: Adobe Illustrator 27.2.0, SVG Export Plug-In . SVG Version: 6.00 Build 0)  -->
<svg version="1.1" id="Layer_1" xmlns="http://www.w3.org/2000/svg" xmlns:xlink="http://www.w3.org/1999/xlink" x="0px" y="0px"
	 viewBox="0 0 77.64 98.62" style="enable-background:new 0 0 77.64 98.62;" xml:space="preserve">
<style type="text/css">
	.st0{fill:#010101;}
</style>
<g>
	<path class="st0" d="M48.75,74.65c7.58-11.83,17.32-27.06,17.87-28.07c2.46-4.56,3.75-9.73,3.75-14.94
		c0-8.47-3.31-16.42-9.32-22.39C55.1,3.34,47.21,0.09,38.82,0.09h0c-8.39,0-16.28,3.25-22.23,9.16c-6.01,5.97-9.32,13.92-9.32,22.39
		c0,5.21,1.3,10.38,3.75,14.94c0.54,1.01,10.28,16.23,17.87,28.07c-15.2,1.23-28.68,5.27-28.68,11.78
		c0,7.91,19.89,12.18,38.61,12.18s38.61-4.27,38.61-12.18C77.43,79.92,63.95,75.88,48.75,74.65L48.75,74.65z M13.18,45.42
		c-2.26-4.21-3.46-8.97-3.46-13.78c0-7.81,3.05-15.15,8.6-20.65c5.44-5.41,12.64-8.4,20.3-8.45h0.42c7.66,0.05,14.85,3.05,20.3,8.45
		c5.54,5.5,8.6,12.84,8.6,20.65c0,4.81-1.2,9.57-3.46,13.78c-0.66,1.22-17.84,28.03-25.64,40.18
		C31.02,73.45,13.83,46.64,13.18,45.42L13.18,45.42z M64.91,93.01c-6.95,2.04-16.22,3.16-26.09,3.16s-19.14-1.12-26.09-3.16
		C6.42,91.16,2.66,88.7,2.66,86.43c0-2.27,3.76-4.73,10.07-6.57c4.93-1.44,11.01-2.43,17.65-2.88c3.96,6.18,7.05,10.99,7.41,11.54
		c0.22,0.35,0.61,0.56,1.03,0.56c0.42,0,0.8-0.21,1.03-0.56c0.36-0.56,3.45-5.37,7.41-11.54c6.64,0.45,12.73,1.43,17.65,2.88
		c6.31,1.85,10.07,4.31,10.07,6.57C74.98,88.7,71.22,91.16,64.91,93.01L64.91,93.01z"/>
	<path class="st0" d="M63.24,31.65c0-13.46-10.95-24.42-24.42-24.42S14.4,18.18,14.4,31.65s10.95,24.42,24.42,24.42
		C52.28,56.06,63.24,45.11,63.24,31.65L63.24,31.65z M16.85,31.65c0-12.11,9.85-21.97,21.97-21.97c12.11,0,21.97,9.85,21.97,21.97
		c0,12.11-9.85,21.97-21.97,21.97C26.71,53.62,16.85,43.76,16.85,31.65L16.85,31.65z"/>
	<path class="st0" d="M42.81,29.98v-9.65h3.75c0.84,0,1.51-0.68,1.51-1.51c0-0.83-0.68-1.51-1.51-1.51h-3.75V15.2
		c0-0.84-0.68-1.51-1.51-1.51c-0.84,0-1.51,0.68-1.51,1.51l0,2.11h-2.48V15.2c0-0.84-0.68-1.51-1.51-1.51
		c-0.84,0-1.51,0.68-1.51,1.51v2.16c-3.88,0.42-6.91,3.72-6.91,7.71v0.13c0,3.99,3.03,7.29,6.91,7.71v9.65h-3.75
		c-0.84,0-1.51,0.68-1.51,1.51c0,0.84,0.68,1.51,1.51,1.51h3.75v2.11c0,0.84,0.68,1.51,1.51,1.51c0.84,0,1.51-0.68,1.51-1.51v-2.11
		h2.48v2.11c0,0.84,0.68,1.51,1.51,1.51c0.84,0,1.51-0.68,1.51-1.51v-2.16c3.88-0.42,6.91-3.72,6.91-7.71v-0.13
		C49.72,33.7,46.69,30.41,42.81,29.98L42.81,29.98z M39.78,20.33v9.6H37.3v-9.6L39.78,20.33z M30.4,25.19v-0.13
		c0-2.32,1.68-4.26,3.88-4.66v9.45C32.08,29.45,30.4,27.52,30.4,25.19L30.4,25.19z M37.31,42.56v-9.61h2.48v9.6L37.31,42.56
		L37.31,42.56z M46.69,37.82c0,2.32-1.68,4.26-3.88,4.66l0-9.44c2.2,0.4,3.88,2.34,3.88,4.66L46.69,37.82z"/>
</g>
</svg>
