<?xml version="1.0" encoding="utf-8"?>
<!-- Generator: Adobe Illustrator 27.2.0, SVG Export Plug-In . SVG Version: 6.00 Build 0)  -->
<svg version="1.1" id="Layer_1" xmlns="http://www.w3.org/2000/svg" xmlns:xlink="http://www.w3.org/1999/xlink" x="0px" y="0px"
	 viewBox="0 0 77.64 105.92" style="enable-background:new 0 0 77.64 105.92;" xml:space="preserve">
<style type="text/css">
	.st0{fill:#010101;}
</style>
<path class="st0" d="M32.74,11.29h-3.22c0.26-0.81,0.4-1.66,0.4-2.55c0-4.82-4.13-8.74-9.21-8.74h-7.37C8.27,0,4.14,3.92,4.14,8.74
	c0,0.89,0.14,1.74,0.4,2.55H1.32C0.59,11.29,0,11.88,0,12.61v7.63c0,0.73,0.59,1.32,1.32,1.32h9.16v2.65L4,26.18
	c-1.28,0.39-2.32,1.25-2.95,2.42c-0.63,1.18-0.76,2.53-0.37,3.8c0.64,2.12,2.56,3.54,4.77,3.54c0.49,0,0.98-0.07,1.45-0.22
	l3.57-1.09v4.04L4,40.65c-1.28,0.39-2.32,1.25-2.95,2.42c-0.63,1.18-0.76,2.53-0.37,3.8c0.64,2.12,2.56,3.54,4.77,3.54
	c0.49,0,0.98-0.07,1.45-0.22l3.57-1.09v4.04L4,55.12c-1.28,0.39-2.32,1.25-2.95,2.42c-0.63,1.18-0.76,2.53-0.37,3.8
	c0.64,2.12,2.56,3.54,4.77,3.54c0.49,0,0.98-0.07,1.45-0.22l3.57-1.09v4.04L4,69.59c-1.28,0.39-2.32,1.25-2.95,2.42
	c-0.63,1.18-0.76,2.53-0.37,3.8c0.1,0.32,0.23,0.63,0.38,0.92C0.45,76.85,0,77.38,0,78.02v5.69c0,0.73,0.59,1.32,1.32,1.32h9.16
	v3.78c0,0.38,0.16,0.72,0.42,0.96c-1.91,1.7-3.11,4.17-3.11,6.91c0,5.1,4.15,9.25,9.25,9.25s9.25-4.15,9.25-9.25
	c0-2.75-1.21-5.22-3.11-6.91c0.26-0.24,0.42-0.58,0.42-0.96v-3.78h9.16c0.73,0,1.32-0.59,1.32-1.32v-5.69
	c0-0.73-0.59-1.32-1.32-1.32l-9.16,0v-2.63l6.48-1.97c1.28-0.39,2.32-1.25,2.95-2.42c0.63-1.18,0.76-2.53,0.37-3.8
	c-0.8-2.63-3.59-4.13-6.23-3.33l-3.57,1.09V59.6l6.48-1.97c2.63-0.8,4.13-3.59,3.33-6.23c-0.8-2.63-3.59-4.12-6.23-3.33l-3.57,1.09
	v-4.04l6.48-1.97c2.63-0.8,4.13-3.59,3.33-6.23c-0.8-2.63-3.59-4.13-6.23-3.33l-3.57,1.09v-4.04l6.47-1.97
	c1.28-0.39,2.32-1.25,2.95-2.42c0.63-1.18,0.76-2.53,0.37-3.8c-0.1-0.33-0.23-0.64-0.39-0.94c0.61-0.12,1.07-0.65,1.07-1.29l0-7.63
	C34.06,11.88,33.47,11.29,32.74,11.29L32.74,11.29z M13.35,2.63h7.37c3.63,0,6.58,2.74,6.58,6.11c0,0.91-0.22,1.77-0.6,2.55H7.37
	c-0.39-0.78-0.6-1.64-0.6-2.55C6.77,5.37,9.72,2.63,13.35,2.63L13.35,2.63z M23.65,96.67c0,3.65-2.97,6.61-6.61,6.61
	s-6.61-2.97-6.61-6.61c0-3.65,2.97-6.61,6.61-6.61C20.68,90.06,23.65,93.02,23.65,96.67z M13.11,87.48v-2.46h7.84v2.46h-2.9
	c-0.34-0.04-0.68-0.06-1.02-0.06s-0.69,0.02-1.02,0.06H13.11z M31.43,79.33v3.05H2.63v-3.05h2.37c0.15,0.01,0.29,0.02,0.44,0.02
	c0.14,0,0.29-0.01,0.43-0.02H31.43z M14.92,76.7l6.03-1.83v1.83H14.92z M27.92,65.07c0.23-0.07,0.46-0.1,0.68-0.1
	c1.01,0,1.95,0.66,2.26,1.67c0.18,0.6,0.12,1.24-0.18,1.8c-0.3,0.56-0.79,0.96-1.4,1.15L6.14,76.62c-0.22,0.07-0.46,0.1-0.69,0.1
	c-1.03,0-1.96-0.69-2.26-1.67c-0.18-0.6-0.12-1.24,0.18-1.8c0.3-0.56,0.79-0.96,1.4-1.15L27.92,65.07z M13.11,66.82v-4.04l7.84-2.38
	v4.04L13.11,66.82z M27.92,50.6c0.23-0.07,0.46-0.1,0.68-0.1c1.01,0,1.95,0.66,2.26,1.67c0.38,1.24-0.33,2.57-1.57,2.94L6.14,62.15
	c-0.22,0.07-0.46,0.1-0.69,0.1c-1.03,0-1.96-0.69-2.26-1.68c-0.18-0.6-0.12-1.24,0.18-1.8c0.3-0.56,0.79-0.96,1.4-1.15L27.92,50.6z
	 M13.11,52.35v-4.04l7.84-2.38v4.04L13.11,52.35z M27.92,36.13c0.23-0.07,0.46-0.1,0.68-0.1c1.01,0,1.95,0.66,2.26,1.67
	c0.38,1.24-0.33,2.57-1.57,2.94L6.14,47.68c-0.22,0.07-0.46,0.1-0.69,0.1c-1.03,0-1.96-0.69-2.26-1.67c-0.18-0.6-0.12-1.24,0.18-1.8
	c0.3-0.56,0.79-0.96,1.4-1.15L27.92,36.13z M13.11,37.88v-4.04l7.84-2.38v4.04L13.11,37.88z M30.69,25.03
	c-0.3,0.56-0.79,0.96-1.4,1.15L6.14,33.21c-0.22,0.07-0.46,0.1-0.69,0.1c-1.03,0-1.96-0.69-2.26-1.67c-0.18-0.6-0.12-1.24,0.18-1.8
	c0.3-0.56,0.79-0.96,1.4-1.15l23.16-7.03c0.23-0.07,0.46-0.1,0.68-0.1c1.01,0,1.95,0.66,2.26,1.67
	C31.05,23.84,30.99,24.48,30.69,25.03L30.69,25.03z M13.11,23.41v-1.85h6.1L13.11,23.41z M31.43,18.93H2.63v-5h28.8V18.93z"/>
<path class="st0" d="M77.64,20.24v-7.63c0-0.73-0.59-1.32-1.32-1.32H73.1c0.26-0.81,0.4-1.66,0.4-2.55C73.5,3.92,69.37,0,64.29,0
	h-7.37c-5.08,0-9.21,3.92-9.21,8.74c0,0.89,0.14,1.74,0.4,2.55h-3.22c-0.73,0-1.32,0.59-1.32,1.32v7.63c0,0.73,0.59,1.32,1.32,1.32
	h9.16v2.65l-6.47,1.97c-1.28,0.39-2.32,1.25-2.95,2.42c-0.63,1.18-0.76,2.53-0.37,3.8c0.64,2.12,2.56,3.54,4.77,3.54
	c0.49,0,0.98-0.07,1.45-0.22l3.57-1.09v4.04l-6.47,1.97c-1.28,0.39-2.32,1.25-2.95,2.42c-0.63,1.18-0.76,2.53-0.37,3.8
	c0.64,2.12,2.56,3.54,4.77,3.54c0.49,0,0.98-0.07,1.45-0.22l3.57-1.09v4.04l-6.48,1.97c-1.28,0.39-2.32,1.25-2.95,2.42
	c-0.63,1.18-0.76,2.53-0.37,3.8c0.64,2.12,2.56,3.54,4.77,3.54c0.49,0,0.98-0.07,1.45-0.22l3.57-1.09v4.04l-6.48,1.97
	c-1.28,0.39-2.32,1.25-2.95,2.42c-0.63,1.18-0.76,2.53-0.37,3.8c0.1,0.32,0.23,0.63,0.38,0.92c-0.6,0.12-1.06,0.65-1.06,1.29v5.69
	c0,0.73,0.59,1.32,1.32,1.32h9.16v3.78c0,0.38,0.16,0.72,0.42,0.96c-1.91,1.7-3.11,4.17-3.11,6.91c0,5.1,4.15,9.25,9.25,9.25
	s9.25-4.15,9.25-9.25c0-2.75-1.21-5.22-3.11-6.91c0.26-0.24,0.42-0.58,0.42-0.96v-3.78h9.16c0.73,0,1.32-0.59,1.32-1.32v-5.69
	c0-0.73-0.59-1.32-1.32-1.32l-9.16,0v-2.63l6.48-1.97c1.28-0.39,2.32-1.25,2.95-2.42c0.63-1.18,0.76-2.53,0.37-3.8
	c-0.8-2.63-3.59-4.13-6.23-3.33l-3.57,1.09V59.6l6.48-1.97c2.63-0.8,4.13-3.59,3.33-6.23c-0.8-2.63-3.59-4.12-6.23-3.33l-3.57,1.09
	v-4.04l6.48-1.97c2.63-0.8,4.13-3.59,3.33-6.23c-0.8-2.63-3.59-4.13-6.23-3.33l-3.57,1.09v-4.04l6.47-1.97
	c1.28-0.39,2.32-1.25,2.95-2.42c0.63-1.18,0.76-2.53,0.37-3.8c-0.1-0.33-0.23-0.64-0.39-0.94C77.18,21.42,77.64,20.89,77.64,20.24
	L77.64,20.24z M56.92,2.63h7.37c3.63,0,6.58,2.74,6.58,6.11c0,0.91-0.22,1.77-0.6,2.55H50.95c-0.39-0.78-0.6-1.64-0.6-2.55
	C50.35,5.37,53.3,2.63,56.92,2.63L56.92,2.63z M67.22,96.67c0,3.65-2.97,6.61-6.61,6.61c-3.65,0-6.61-2.97-6.61-6.61
	c0-3.65,2.97-6.61,6.61-6.61C64.26,90.06,67.22,93.02,67.22,96.67L67.22,96.67z M56.69,87.48v-2.46h7.84v2.46h-2.9
	c-0.34-0.04-0.68-0.06-1.02-0.06s-0.69,0.02-1.02,0.06H56.69z M75.01,79.33v3.05h-28.8v-3.05h2.37c0.15,0.01,0.29,0.02,0.44,0.02
	c0.14,0,0.29-0.01,0.43-0.02H75.01z M58.5,76.7l6.03-1.83v1.83H58.5z M71.5,65.07c0.23-0.07,0.46-0.1,0.68-0.1
	c1.01,0,1.95,0.66,2.26,1.67c0.18,0.6,0.12,1.24-0.18,1.8c-0.3,0.56-0.79,0.96-1.4,1.15l-23.16,7.03c-0.22,0.07-0.46,0.1-0.69,0.1
	c-1.03,0-1.96-0.69-2.26-1.67c-0.18-0.6-0.12-1.24,0.18-1.8c0.3-0.56,0.79-0.96,1.4-1.15L71.5,65.07z M56.69,66.82v-4.04l7.84-2.38
	v4.04L56.69,66.82z M71.5,50.6c0.23-0.07,0.46-0.1,0.68-0.1c1.01,0,1.95,0.66,2.26,1.67c0.38,1.24-0.33,2.57-1.57,2.94l-23.16,7.03
	c-0.22,0.07-0.46,0.1-0.69,0.1c-1.03,0-1.96-0.69-2.26-1.68c-0.18-0.6-0.12-1.24,0.18-1.8c0.3-0.56,0.79-0.96,1.4-1.15L71.5,50.6z
	 M56.69,52.35v-4.04l7.84-2.38v4.04L56.69,52.35z M71.5,36.13c0.23-0.07,0.46-0.1,0.68-0.1c1.01,0,1.95,0.66,2.26,1.67
	c0.38,1.24-0.33,2.57-1.57,2.94l-23.16,7.03c-0.22,0.07-0.46,0.1-0.69,0.1c-1.03,0-1.96-0.69-2.26-1.67
	c-0.18-0.6-0.12-1.24,0.18-1.8c0.3-0.56,0.79-0.96,1.4-1.15L71.5,36.13z M56.69,37.88v-4.04l7.84-2.38v4.04L56.69,37.88z
	 M74.27,25.03c-0.3,0.56-0.79,0.96-1.4,1.15l-23.16,7.03c-0.22,0.07-0.46,0.1-0.69,0.1c-1.03,0-1.96-0.69-2.26-1.67
	c-0.18-0.6-0.12-1.24,0.18-1.8c0.3-0.56,0.79-0.96,1.4-1.15l23.16-7.03c0.23-0.07,0.46-0.1,0.68-0.1c1.01,0,1.95,0.66,2.26,1.67
	C74.63,23.84,74.57,24.48,74.27,25.03L74.27,25.03z M56.69,23.41v-1.85h6.1L56.69,23.41z M75.01,18.93h-28.8v-5h28.8V18.93z"/>
</svg>
