<?xml version="1.0" encoding="utf-8"?>
<!-- Generator: Adobe Illustrator 27.2.0, SVG Export Plug-In . SVG Version: 6.00 Build 0)  -->
<svg version="1.1" id="Layer_1" xmlns="http://www.w3.org/2000/svg" xmlns:xlink="http://www.w3.org/1999/xlink" x="0px" y="0px"
	 viewBox="0 0 700 700" style="enable-background:new 0 0 700 700;" xml:space="preserve">
<g>
	<path d="M216.5,123.4c-4-11.7-12.9-20.9-24.5-25.1c-11.4-4.1-23.8-3-34.2,3l-27.7,12.9c-6.6,3.1-9.5,11-6.4,17.7
		c3.1,6.6,11,9.5,17.7,6.4l28.3-13.2c0.4-0.2,0.9-0.4,1.3-0.7c3.6-2.2,8-2.7,12-1.2c3.9,1.4,6.9,4.4,8.3,8.3l5.6,20.8
		c1.6,5.9,7,9.8,12.8,9.8c1.1,0,2.3-0.1,3.5-0.5c7.1-1.9,11.3-9.2,9.4-16.3l-5.7-21.2C216.7,123.9,216.6,123.7,216.5,123.4
		L216.5,123.4z"/>
	<path d="M617.4,466.5c1.6-3.7,1.5-7.8-0.3-11.4l-17.7-34.7c-2.3-4.4-6.8-7.2-11.7-7.3l-161.8-1.2l11.4-19.7
		c12.2-20.9,5-47.9-15.9-60l-86-50l18.6-32l41.8,24.3c2.1,1.2,4.4,1.8,6.7,1.8c4.6,0,9-2.4,11.5-6.6c3.7-6.3,1.5-14.5-4.8-18.2
		l-106.7-62c-6.4-3.7-14.5-1.5-18.2,4.8c-3.7,6.3-1.5,14.5,4.8,18.2L331,237l-18.6,32l-67.2-39l-13.6-50.4
		c-1.9-7.1-9.2-11.3-16.3-9.4c-7.1,1.9-11.3,9.2-9.4,16.3l7.4,27.6c-3-0.6-6-1.1-9.1-1.1c-15.6,0-30.2,8.4-38,21.9l-16.6,28.6
		L84.3,189c-0.5-0.5-1-1.1-1.6-1.5c-3.5-2.9-5.4-7.2-5.1-11.7c0.3-4.4,2.5-8.2,6.1-10.6l27.3-12.8c6.7-3.1,9.5-11,6.4-17.7
		c-3.1-6.6-11-9.5-17.7-6.4l-28.1,13.1c-0.4,0.2-0.9,0.4-1.3,0.7c-11.2,6.8-18.4,18.7-19.3,31.8c-0.9,12.7,4.3,25.1,13.8,33.4
		l70.7,80.4L95,357.8c-5.9,10.1-7.5,22-4.5,33.3c3,11.3,10.2,20.8,20.4,26.7l210.2,122.1c6.7,3.9,14.3,5.9,22.1,5.9
		c4.2,0,8.5-0.6,12.3-1.8l253.4-70.2C612.7,472.9,615.8,470.2,617.4,466.5L617.4,466.5z M348.1,518.6c-1.6,0.5-3.3,0.7-4.9,0.7
		c-3.1,0-6.1-0.8-8.7-2.3L124.3,394.8c-4-2.3-6.9-6.1-8.1-10.6s-0.6-9.1,1.8-13.2l71.4-122.9c3.1-5.3,8.9-8.6,15-8.6
		c3,0,6,0.8,8.7,2.3l97.5,56.6c0,0,0,0,0,0c0,0,0,0,0,0l97.5,56.6c8.3,4.8,11.1,15.5,6.3,23.7l-22.9,39.4c-2.4,4.1-2.4,9.1-0.1,13.3
		c2.3,4.1,6.7,6.7,11.4,6.7l176.6,1.3l6.6,13L348.1,518.6z"/>
	<path d="M321.6,327.8l-13.9-8.1c-6.4-3.7-14.5-1.5-18.2,4.8c-3.7,6.3-1.5,14.5,4.8,18.2l13.9,8.1c2.1,1.2,4.4,1.8,6.7,1.8
		c4.6,0,9-2.4,11.5-6.6C330.1,339.6,328,331.5,321.6,327.8L321.6,327.8z"/>
	<path d="M384.2,364.1l-27.6-16c-6.3-3.7-14.5-1.5-18.2,4.8c-3.7,6.3-1.5,14.5,4.8,18.2l27.6,16c2.1,1.2,4.4,1.8,6.7,1.8
		c4.6,0,9-2.4,11.5-6.6C392.7,375.9,390.5,367.8,384.2,364.1L384.2,364.1z"/>
	<path d="M615.9,509c-2.5-3.3-6.4-5.3-10.6-5.3c-4.2,0-8.1,2-10.6,5.3c-5.5,7.3-33,45.1-33,68c0,26.9,19.6,48.8,43.7,48.8
		c24.1,0,43.7-21.9,43.7-48.8C648.9,554.1,621.4,516.3,615.9,509L615.9,509z M605.3,599.2c-9.3,0-17.1-10.2-17.1-22.2
		c0-6.8,7.7-22.1,17.1-36.7c9.4,14.6,17.1,29.8,17.1,36.7C622.4,589,614.5,599.2,605.3,599.2L605.3,599.2z"/>
</g>
</svg>
