<?xml version="1.0" encoding="utf-8"?>
<!-- Generator: Adobe Illustrator 27.2.0, SVG Export Plug-In . SVG Version: 6.00 Build 0)  -->
<svg version="1.1" id="Layer_1" xmlns="http://www.w3.org/2000/svg" xmlns:xlink="http://www.w3.org/1999/xlink" x="0px" y="0px"
	 viewBox="0 0 171.23 105.92" style="enable-background:new 0 0 171.23 105.92;" xml:space="preserve">
<style type="text/css">
	.st0{fill:#010101;}
</style>
<g>
	<path class="st0" d="M162.51,16.07L146,13.16c-8.75-1.15-11.84,5.84-12.33,8.63l-2.1,11.89l-11.6,8.11
		c-0.46,0.32-0.78,0.82-0.88,1.38l-0.92,5.19H99.27v-1.29c0-1.18-0.95-2.13-2.13-2.13H74.12c-1.18,0-2.13,0.95-2.13,2.13v1.29
		l-18.91,0l-0.92-5.19c-0.1-0.56-0.41-1.05-0.88-1.38l-11.6-8.11l-2.1-11.89c-1.02-5.78-6.55-9.65-12.33-8.63L8.75,16.06
		c-2.8,0.49-9.73,3.84-8.63,12.33l12.12,68.72c0.49,2.8,3.37,8.63,10.46,8.8c0.62,0,18.38-3.08,18.38-3.08
		c5.78-1.02,9.65-6.55,8.63-12.33l-2.1-11.89l8.13-11.58c0.32-0.46,0.45-1.04,0.35-1.59l-0.6-3.41h16.5v1.29
		c0,1.18,0.95,2.13,2.13,2.13h23.02c1.18,0,2.13-0.95,2.13-2.13v-1.29h16.5l-0.6,3.41c-0.1,0.56,0.03,1.13,0.35,1.59l8.13,11.58
		l-2.1,11.89c-1.02,5.78,2.85,11.31,8.63,12.33l16.51,2.91c8.4,1.11,11.65-5.21,12.33-8.63l12.12-68.72
		C172.09,19.44,165.31,16.56,162.51,16.07L162.51,16.07z M38.38,50.78l1.39,7.89l-7.07,8.15l-1.39-7.89L38.38,50.78z M37.43,45.38
		l-7.07,8.15l-1.39-7.89l7.07-8.15L37.43,45.38z M35.08,32.1l-7.07,8.15l-1.39-7.89l7.07-8.15L35.08,32.1z M26,17.35
		c2.66-0.42,4.86,0.8,6.05,2.26l-6.38,7.35l-1.63-9.26L26,17.35z M9.49,20.26l1.96-0.35l1.53,8.69l-8.25-4.58
		C5.89,21.86,7.38,20.83,9.49,20.26L9.49,20.26z M4.51,28.77L13.94,34l1.39,7.89L5.9,36.65L4.51,28.77z M6.85,42.05l9.43,5.24
		l1.39,7.89l-9.43-5.24L6.85,42.05z M9.19,55.33l9.43,5.24l1.39,7.89l-9.43-5.24L9.19,55.33z M11.53,68.62l9.43,5.24l1.39,7.89
		l-9.43-5.24L11.53,68.62z M13.88,81.9l9.43,5.24l1.39,7.89l-9.43-5.24L13.88,81.9z M23.83,101.56c-3.47,0.61-6.79-1.71-7.4-5.18
		l-0.21-1.19l9.43,5.24l0.14,0.79L23.83,101.56z M29.98,100.47l-14.33-81.3l4.19-0.74l14.34,81.3L29.98,100.47z M33.65,72.21
		l7.07-8.15l1.39,7.89l-7.07,8.15L33.65,72.21z M35.99,85.49l7.07-8.15l1.39,7.89l-7.07,8.15L35.99,85.49z M40.33,98.65l-2.11,0.31
		l7.18-8.33l0.11,0.62C46.13,94.72,43.8,98.04,40.33,98.65L40.33,98.65z M46.57,72.7l-5.84-33.1l7.39,5.16l3.62,20.56L46.57,72.7z
		 M71.99,57.78H54.74l-0.91-5.18h18.16L71.99,57.78z M95.01,61.2H76.25V49.19h18.76V61.2z M116.52,57.78H99.27v-5.18h18.16
		L116.52,57.78z M159.8,19.91l1.96,0.35c1.68,0.3,3.14,1.23,4.12,2.63c0.25,0.36,0.46,0.74,0.63,1.14l-8.25,4.58L159.8,19.91z
		 M145.26,17.35l1.96,0.35l-1.63,9.26l-6.38-7.35C140.4,18.15,142.92,16.93,145.26,17.35L145.26,17.35z M137.57,24.21l7.07,8.15
		l-1.39,7.89l-7.07-8.15L137.57,24.21z M135.22,37.49l7.07,8.15l-1.39,7.89l-7.07-8.15L135.22,37.49z M132.88,50.78l7.07,8.15
		l-1.39,7.89l-7.07-8.15L132.88,50.78z M119.51,65.32l3.62-20.56l7.39-5.16l-5.84,33.1L119.51,65.32z M133.17,99.15l-2.24-0.5
		c-5.28-1.45-5.48-5.72-5.18-7.4l0.11-0.62L133.17,99.15z M133.88,93.38l-7.07-8.15l1.39-7.89l7.07,8.15L133.88,93.38z
		 M129.15,71.95l1.39-7.89l7.07,8.15l-1.39,7.89L129.15,71.95z M137.08,99.73l14.33-81.3l4.19,0.74l-14.33,81.3L137.08,99.73z
		 M154.83,96.38c-1.32,5.09-5.72,5.48-7.4,5.18l-1.96-0.35l0.14-0.79l9.43-5.24L154.83,96.38z M155.99,89.79l-9.43,5.24l1.39-7.89
		l9.43-5.24L155.99,89.79z M158.34,76.51l-9.43,5.24l1.39-7.89l9.43-5.24L158.34,76.51z M160.68,63.22l-9.43,5.24l1.39-7.89
		l9.43-5.24L160.68,63.22z M163.02,49.94l-9.43,5.24l1.39-7.89l9.43-5.24L163.02,49.94z M165.36,36.65l-9.43,5.24l1.39-7.89
		l9.43-5.24L165.36,36.65z"/>
	<path class="st0" d="M43.73,15.41l10.53,4.07l1.54-3.97l-6.62-2.56c11.24-5.69,23.76-8.69,36.46-8.69s25.21,3,36.46,8.69
		l-6.62,2.56l1.54,3.97l10.53-4.07c1.1-0.42,1.64-1.66,1.22-2.75l-4.07-10.53l-3.97,1.54l1.84,4.77C111.09,2.9,98.45,0,85.63,0
		S60.16,2.9,48.7,8.43l1.84-4.77l-3.97-1.54L42.5,12.65C42.08,13.75,42.63,14.98,43.73,15.41L43.73,15.41z"/>
</g>
</svg>
