<?xml version="1.0" encoding="utf-8"?>
<!-- Generator: Adobe Illustrator 27.2.0, SVG Export Plug-In . SVG Version: 6.00 Build 0)  -->
<svg version="1.1" id="Layer_1" xmlns="http://www.w3.org/2000/svg" xmlns:xlink="http://www.w3.org/1999/xlink" x="0px" y="0px"
	 viewBox="0 0 200 200" style="enable-background:new 0 0 200 200;" xml:space="preserve">
<style type="text/css">
	.st0{fill:#010101;}
</style>
<g>
	<path class="st0" d="M176.76,62.31l-16.51-2.91c-8.75-1.15-11.84,5.84-12.33,8.63l-2.1,11.89l-11.6,8.11
		c-0.46,0.32-0.78,0.82-0.88,1.38l-0.92,5.19h-18.91v-1.29c0-1.18-0.95-2.13-2.13-2.13H88.37c-1.18,0-2.13,0.95-2.13,2.13v1.29
		l-18.91,0l-0.92-5.19c-0.1-0.56-0.41-1.05-0.88-1.38l-11.6-8.11l-2.1-11.89c-1.02-5.78-6.55-9.65-12.33-8.63L23,62.31
		c-2.8,0.49-9.73,3.84-8.63,12.33l12.12,68.72c0.49,2.8,3.37,8.63,10.46,8.8c0.62,0,18.38-3.08,18.38-3.08
		c5.78-1.02,9.65-6.55,8.63-12.33l-2.1-11.89l8.13-11.58c0.32-0.46,0.45-1.04,0.35-1.59l-0.6-3.41h16.5v1.29
		c0,1.18,0.95,2.13,2.13,2.13h23.02c1.18,0,2.13-0.95,2.13-2.13v-1.29h16.5l-0.6,3.41c-0.1,0.56,0.03,1.13,0.35,1.59l8.13,11.58
		l-2.1,11.89c-1.02,5.78,2.85,11.31,8.63,12.33l16.51,2.91c8.4,1.11,11.65-5.21,12.33-8.63l12.12-68.72
		C186.34,65.68,179.56,62.8,176.76,62.31L176.76,62.31z M52.63,97.02l1.39,7.89l-7.07,8.15l-1.39-7.89L52.63,97.02z M51.68,91.62
		l-7.07,8.15l-1.39-7.89l7.07-8.15L51.68,91.62z M49.33,78.34l-7.07,8.15l-1.39-7.89l7.07-8.15L49.33,78.34z M40.25,63.59
		c2.66-0.42,4.86,0.8,6.05,2.26l-6.38,7.35l-1.63-9.26L40.25,63.59z M23.74,66.5l1.96-0.35l1.53,8.69l-8.25-4.58
		C20.14,68.1,21.63,67.07,23.74,66.5L23.74,66.5z M18.75,75.01l9.43,5.24l1.39,7.89l-9.43-5.24L18.75,75.01z M21.1,88.29l9.43,5.24
		l1.39,7.89l-9.43-5.24L21.1,88.29z M23.44,101.58l9.43,5.24l1.39,7.89l-9.43-5.24L23.44,101.58z M25.78,114.86l9.43,5.24l1.39,7.89
		l-9.43-5.24L25.78,114.86z M28.12,128.14l9.43,5.24l1.39,7.89l-9.43-5.24L28.12,128.14z M38.08,147.8
		c-3.47,0.61-6.79-1.71-7.4-5.18l-0.21-1.19l9.43,5.24l0.14,0.79L38.08,147.8z M44.23,146.72L29.9,65.42l4.19-0.74l14.34,81.3
		L44.23,146.72z M47.9,118.45l7.07-8.15l1.39,7.89l-7.07,8.15L47.9,118.45z M50.24,131.74l7.07-8.15l1.39,7.89l-7.07,8.15
		L50.24,131.74z M54.58,144.89l-2.11,0.31l7.18-8.33l0.11,0.62C60.38,140.96,58.05,144.28,54.58,144.89L54.58,144.89z M60.82,118.94
		l-5.84-33.1l7.39,5.16L66,111.56L60.82,118.94z M86.24,104.03H68.99l-0.91-5.18h18.16L86.24,104.03z M109.26,107.44H90.5V95.43
		h18.76V107.44z M130.77,104.03h-17.25v-5.18h18.16L130.77,104.03z M174.05,66.15l1.96,0.35c1.68,0.3,3.14,1.23,4.12,2.63
		c0.25,0.36,0.46,0.74,0.63,1.14l-8.25,4.58L174.05,66.15z M159.51,63.59l1.96,0.35l-1.63,9.26l-6.38-7.35
		C154.65,64.39,157.17,63.17,159.51,63.59L159.51,63.59z M151.82,70.45l7.07,8.15l-1.39,7.89l-7.07-8.15L151.82,70.45z
		 M149.47,83.73l7.07,8.15l-1.39,7.89l-7.07-8.15L149.47,83.73z M147.13,97.02l7.07,8.15l-1.39,7.89l-7.07-8.15L147.13,97.02z
		 M133.76,111.56L137.39,91l7.39-5.16l-5.84,33.1L133.76,111.56z M147.42,145.39l-2.24-0.5c-5.28-1.45-5.48-5.72-5.18-7.4l0.11-0.62
		L147.42,145.39z M148.13,139.62l-7.07-8.15l1.39-7.89l7.07,8.15L148.13,139.62z M143.4,118.19l1.39-7.89l7.07,8.15l-1.39,7.89
		L143.4,118.19z M151.33,145.98l14.33-81.3l4.19,0.74l-14.33,81.3L151.33,145.98z M169.08,142.62c-1.32,5.09-5.72,5.48-7.4,5.18
		l-1.96-0.35l0.14-0.79l9.43-5.24L169.08,142.62z M170.24,136.03l-9.43,5.24l1.39-7.89l9.43-5.24L170.24,136.03z M172.59,122.75
		l-9.43,5.24l1.39-7.89l9.43-5.24L172.59,122.75z M174.93,109.46l-9.43,5.24l1.39-7.89l9.43-5.24L174.93,109.46z M177.27,96.18
		l-9.43,5.24l1.39-7.89l9.43-5.24L177.27,96.18z M179.61,82.89l-9.43,5.24l1.39-7.89l9.43-5.24L179.61,82.89z"/>
	<path class="st0" d="M57.97,61.65l10.53,4.07l1.54-3.97l-6.62-2.56c11.24-5.69,23.76-8.69,36.46-8.69s25.21,3,36.46,8.69
		l-6.62,2.56l1.54,3.97l10.53-4.07c1.1-0.42,1.64-1.66,1.22-2.75l-4.07-10.53l-3.97,1.54l1.84,4.77
		c-11.46-5.52-24.1-8.43-36.92-8.43s-25.47,2.9-36.92,8.43l1.84-4.77l-3.97-1.54l-4.07,10.53C56.33,59.99,56.88,61.23,57.97,61.65
		L57.97,61.65z"/>
</g>
</svg>
