<?xml version="1.0" encoding="utf-8"?>
<!-- Generator: Adobe Illustrator 27.2.0, SVG Export Plug-In . SVG Version: 6.00 Build 0)  -->
<svg version="1.1" id="Layer_1" xmlns="http://www.w3.org/2000/svg" xmlns:xlink="http://www.w3.org/1999/xlink" x="0px" y="0px"
	 viewBox="0 0 92.74 96.98" style="enable-background:new 0 0 92.74 96.98;" xml:space="preserve">
<style type="text/css">
	.st0{fill:#010101;}
</style>
<path class="st0" d="M39.82,12.61c-8.07,0.64-18.29,2.93-21.12,10.18c0,0.01,0,0.01-0.01,0.02l-5.52,14.85l-2.45-0.03l-2.3-0.03
	c-0.39-0.01-5.57-0.03-7.7,5.1c-0.25,0.46-1.25,2.51-0.38,4.28c0.38,0.77,1.25,1.74,3.28,2.04c0.85,0.12,1.8,0.2,2.78,0.24
	c0.75,0.03,1.52,0.05,2.28,0.05c0.05,0,0.11,0,0.16,0l-1.09,2.92c-0.05,0.13-0.07,0.26-0.07,0.4V67.7c0,2.44,1.21,4.6,3.06,5.92
	v4.84c0,3.17,2.58,5.74,5.74,5.74h9.25c3.17,0,5.74-2.58,5.74-5.74v-3.49h28.09v-2.3l-44.61,0c-2.74,0-4.97-2.23-4.97-4.97l0-14.86
	l10.87-29.22c2.4-6.13,11.74-8.13,19.15-8.72c2.97-0.24,12.03-0.33,19.56-0.24v-2.3C51.94,12.28,42.82,12.37,39.82,12.61
	L39.82,12.61z M13.05,74.71c0.61,0.17,1.25,0.26,1.91,0.26h14.22v3.49c0,1.9-1.54,3.44-3.44,3.44l-9.25,0
	c-1.9,0-3.44-1.54-3.44-3.44L13.05,74.71z M9.7,46.99c-1.94,0.03-4.07-0.01-5.75-0.26c-0.57-0.08-1.3-0.28-1.54-0.77
	c-0.31-0.63,0.1-1.76,0.35-2.2c0.02-0.04,0.05-0.09,0.07-0.13c1.48-3.62,5.06-3.73,5.5-3.73c0.04,0,0.05,0,0.06,0l3.93,0.04
	L9.7,46.99z"/>
<path class="st0" d="M41.25,57.98c0.46-0.87,0.41-1.91-0.14-2.72l-0.87-1.3c-1.24-1.84-3.3-3.02-5.52-3.14l-15.14-0.86
	c-0.94-0.05-1.81,0.38-2.34,1.16c-0.53,0.78-0.61,1.75-0.21,2.6l1.52,3.28c0.68,1.46,2.15,2.4,3.76,2.4h16.61
	C39.89,59.38,40.79,58.84,41.25,57.98L41.25,57.98z M20.64,56.01l-1.52-3.28c-0.07-0.15-0.01-0.28,0.03-0.34
	c0.04-0.06,0.13-0.15,0.28-0.15c0.01,0,0.01,0,0.02,0l15.14,0.86c1.5,0.09,2.9,0.88,3.73,2.13l0.87,1.3
	c0.1,0.15,0.05,0.29,0.02,0.35c-0.04,0.07-0.12,0.18-0.3,0.18l-16.61,0C21.59,57.07,20.94,56.66,20.64,56.01L20.64,56.01z"/>
<path class="st0" d="M55.86,18.64l-0.21,0l-0.22,0h-0.06c-4.08,0-19.05,0.52-22.53,1.17c-3,0.45-7.17,1.54-8.97,5.68
	c-0.01,0.02-0.02,0.04-0.02,0.06l-4.35,11.82c-0.19,0.51,0.01,1.09,0.47,1.38c0.21,0.13,5.41,3.26,21.31,3.77
	c1.89,0.16,7.52,0.24,13.13,0.24c1.76,0,3.53-0.01,5.17-0.02v-2.31c-6.82,0.06-15.8-0.01-18.13-0.21c-0.02,0-0.04,0-0.07,0
	c-0.32-0.01-0.63-0.02-0.94-0.03c-0.39-1.22-1.02-2.23-1.71-3.04l6.92,1.07L46,35.93l-19.84-3.06l-0.35,2.28l8.56,1.32l-0.05,0.11
	c0.03,0.01,2.42,1.09,3.59,3.47c-9.42-0.58-14.14-2.14-15.9-2.87L26,26.37c1.06-2.41,3.22-3.69,7.21-4.29c0.01,0,0.03,0,0.04-0.01
	c3.1-0.59,17.65-1.13,22.11-1.13h0.06l0.22,0l0.21,0h0.06c0.91,0,2.18,0.02,3.65,0.07V18.7c-1.45-0.04-2.72-0.07-3.65-0.07
	L55.86,18.64L55.86,18.64z"/>
<path class="st0" d="M25.55,64.43h34.02v2.3H25.55V64.43z"/>
<path class="st0" d="M88.76,68.23c-0.45-0.45-1.18-0.45-1.63,0l-5.52,5.52H63.3c-0.64,0-1.15,0.52-1.15,1.15v18.5
	c0,0.64,0.52,1.15,1.15,1.15h19.45c0.64,0,1.15-0.52,1.15-1.15V81.22l8.1-8.1c0.22-0.22,0.34-0.51,0.34-0.81
	c0-0.31-0.12-0.6-0.34-0.81L88.76,68.23z M64.46,76.06H79.3l-6.24,6.24l-4.14-4.14c-0.22-0.22-0.51-0.34-0.81-0.34
	s-0.6,0.12-0.81,0.34l-2.84,2.84L64.46,76.06z M81.6,92.25H64.46v-8.79l6.17,6.17c0.65,0.65,1.52,1.01,2.44,1.01
	c0.92,0,1.79-0.36,2.44-1.01l6.1-6.1L81.6,92.25z M73.87,87.99c-0.22,0.22-0.5,0.34-0.81,0.34c-0.31,0-0.59-0.12-0.81-0.34
	l-5.77-5.77l1.62-1.62l4.14,4.14c0.22,0.22,0.51,0.34,0.81,0.34c0.31,0,0.6-0.12,0.81-0.34l14.07-14.07l1.62,1.62L73.87,87.99z"/>
<path class="st0" d="M63.3,61.59h19.45c0.64,0,1.15-0.52,1.15-1.15V48.26l8.1-8.1c0.45-0.45,0.45-1.18,0-1.63l-3.25-3.25
	c-0.22-0.22-0.51-0.34-0.81-0.34c-0.31,0-0.6,0.12-0.81,0.34l-5.52,5.52H63.3c-0.64,0-1.15,0.52-1.15,1.15v18.5
	C62.15,61.08,62.67,61.59,63.3,61.59L63.3,61.59z M87.94,37.72l1.62,1.62L73.87,55.03c-0.22,0.22-0.5,0.34-0.81,0.34
	c-0.31,0-0.59-0.12-0.81-0.34l-5.77-5.77l1.62-1.62l4.14,4.14c0.22,0.22,0.51,0.34,0.81,0.34s0.6-0.12,0.81-0.34L87.94,37.72z
	 M64.45,43.1H79.3l-6.24,6.24l-4.14-4.14c-0.45-0.45-1.18-0.45-1.63,0l-2.84,2.84L64.45,43.1z M64.45,50.5l6.17,6.17
	c0.65,0.65,1.52,1.01,2.44,1.01c0.92,0,1.79-0.36,2.44-1.01l6.1-6.1v8.73H64.45L64.45,50.5z"/>
<path class="st0" d="M63.3,28.64h19.45c0.64,0,1.15-0.52,1.15-1.15V15.3l8.1-8.1c0.18-0.18,0.29-0.42,0.32-0.67
	c0.01-0.05,0.01-0.1,0.01-0.15c0-0.31-0.12-0.6-0.34-0.81l-3.25-3.25c-0.45-0.45-1.18-0.45-1.63,0l-5.52,5.52H63.3
	c-0.64,0-1.15,0.52-1.15,1.15v18.5C62.15,28.12,62.67,28.64,63.3,28.64L63.3,28.64z M87.94,4.76l1.62,1.62L73.87,22.08
	c-0.22,0.22-0.5,0.34-0.81,0.34s-0.59-0.12-0.81-0.34l-5.77-5.77l1.62-1.62l4.14,4.14c0.22,0.22,0.51,0.34,0.81,0.34
	s0.6-0.12,0.81-0.34L87.94,4.76z M64.45,10.14H79.3l-6.24,6.24l-4.14-4.14c-0.45-0.45-1.18-0.45-1.63,0l-2.84,2.84L64.45,10.14z
	 M64.45,17.54l6.17,6.17c0.65,0.65,1.52,1.01,2.44,1.01c0.92,0,1.79-0.36,2.44-1.01l6.1-6.1v8.73H64.45L64.45,17.54z"/>
</svg>
