<?xml version="1.0" encoding="utf-8"?>
<!-- Generator: Adobe Illustrator 27.2.0, SVG Export Plug-In . SVG Version: 6.00 Build 0)  -->
<svg version="1.1" id="Layer_1" xmlns="http://www.w3.org/2000/svg" xmlns:xlink="http://www.w3.org/1999/xlink" x="0px" y="0px"
	 viewBox="0 0 106.91 105.92" style="enable-background:new 0 0 106.91 105.92;" xml:space="preserve">
<style type="text/css">
	.st0{fill:#010101;}
</style>
<path class="st0" d="M91.51,20C83.32,11.81,72.98,7.06,62.28,5.73l-5.34-5.34C56.68,0.14,56.35,0,56,0h-0.13
	C41.01,0,27.05,5.78,16.54,16.29C6,26.83,0.22,40.85,0.25,55.75c0,0.35,0.14,0.68,0.39,0.93l5.34,5.34
	c1.33,10.7,6.08,21.05,14.27,29.24c9.77,9.77,22.61,14.66,35.47,14.66c12.91,0,25.83-4.92,35.68-14.77
	C111.05,71.5,111.1,39.58,91.51,20L91.51,20z M61.8,15.69c8.29,1.22,16.28,5.01,22.64,11.38c15.75,15.75,15.75,41.37,0,57.12
	c-15.75,15.75-41.37,15.75-57.12,0c-6.37-6.37-10.16-14.35-11.38-22.64l3.35-0.56c2.02-0.34,3.49-2.15,3.42-4.21
	c-0.31-9.16,3.22-18.13,9.7-24.61s15.45-10.01,24.61-9.7c2.06,0.07,3.87-1.4,4.21-3.42L61.8,15.69z M2.89,55.21
	c0.11-14,5.61-27.13,15.52-37.05C28.32,8.25,41.45,2.75,55.45,2.64l5.01,5.01l-1.83,10.96c-0.12,0.72-0.78,1.24-1.52,1.22
	c-9.89-0.34-19.58,3.48-26.57,10.47S19.74,46.97,20.08,56.87c0.03,0.75-0.5,1.4-1.22,1.52L7.9,60.22L2.89,55.21z M89.53,89.28
	c-9.33,9.33-21.58,14-33.81,14c-12.18,0-24.35-4.63-33.61-13.88c-7.49-7.49-11.95-16.88-13.38-26.65l4.58-0.77
	c1.34,9.08,5.53,17.46,12.14,24.07c8.13,8.13,18.93,12.6,30.43,12.6c11.49,0,22.3-4.48,30.43-12.6c8.13-8.13,12.6-18.93,12.6-30.43
	c0-11.49-4.48-22.3-12.6-30.43c-6.61-6.61-14.99-10.8-24.07-12.14L63,8.49c9.76,1.43,19.16,5.89,26.65,13.38
	C108.2,40.42,108.15,70.66,89.53,89.28L89.53,89.28z"/>
<path class="st0" d="M74.12,72.18c0,0.94-0.76,1.69-1.69,1.69c-0.93,0-1.69-0.76-1.69-1.69c0-0.94,0.76-1.69,1.69-1.69
	C73.36,70.48,74.12,71.24,74.12,72.18"/>
<path class="st0" d="M75.53,75.28c-0.66,0.66-0.66,1.73,0,2.4s1.73,0.66,2.4,0c0.66-0.66,0.66-1.73,0-2.4
	C77.27,74.62,76.19,74.62,75.53,75.28z"/>
<path class="st0" d="M82.73,80.78c0,0.94-0.76,1.69-1.69,1.69s-1.69-0.76-1.69-1.69s0.76-1.69,1.69-1.69S82.73,79.85,82.73,80.78"/>
<path class="st0" d="M41.03,39.09c0,0.94-0.76,1.69-1.69,1.69s-1.69-0.76-1.69-1.69c0-0.94,0.76-1.69,1.69-1.69
	S41.03,38.15,41.03,39.09"/>
<path class="st0" d="M36.72,34.78c0,0.93-0.76,1.69-1.69,1.69c-0.94,0-1.69-0.76-1.69-1.69c0-0.94,0.76-1.69,1.69-1.69
	C35.97,33.09,36.72,33.85,36.72,34.78"/>
<path class="st0" d="M74.12,39.09c0,0.94-0.76,1.69-1.69,1.69c-0.93,0-1.69-0.76-1.69-1.69c0-0.94,0.76-1.69,1.69-1.69
	C73.36,37.39,74.12,38.15,74.12,39.09"/>
<path class="st0" d="M78.42,34.78c0,0.93-0.76,1.69-1.69,1.69s-1.69-0.76-1.69-1.69c0-0.94,0.76-1.69,1.69-1.69
	S78.42,33.85,78.42,34.78"/>
<path class="st0" d="M82.73,30.48c0,0.94-0.76,1.69-1.69,1.69s-1.69-0.76-1.69-1.69c0-0.94,0.76-1.69,1.69-1.69
	S82.73,29.54,82.73,30.48"/>
<path class="st0" d="M41.03,72.18c0,0.94-0.76,1.69-1.69,1.69s-1.69-0.76-1.69-1.69c0-0.94,0.76-1.69,1.69-1.69
	S41.03,71.24,41.03,72.18"/>
<path class="st0" d="M36.72,76.48c0,0.94-0.76,1.69-1.69,1.69c-0.94,0-1.69-0.76-1.69-1.69c0-0.94,0.76-1.69,1.69-1.69
	C35.97,74.79,36.72,75.55,36.72,76.48"/>
<path class="st0" d="M32.42,80.78c0,0.94-0.76,1.69-1.69,1.69c-0.94,0-1.69-0.76-1.69-1.69s0.76-1.69,1.69-1.69
	C31.66,79.09,32.42,79.85,32.42,80.78"/>
<path class="st0" d="M79.36,60.24c0.8,0.48,1.06,1.53,0.57,2.33c-0.48,0.8-1.53,1.06-2.33,0.57c-0.8-0.48-1.06-1.53-0.57-2.33
	C77.52,60.01,78.56,59.75,79.36,60.24"/>
<path class="st0" d="M84.8,61.63c-0.9-0.24-1.83,0.29-2.07,1.2c-0.24,0.9,0.29,1.83,1.2,2.07c0.9,0.24,1.83-0.29,2.07-1.2
	C86.24,62.8,85.7,61.87,84.8,61.63z"/>
<path class="st0" d="M91.7,63.99c0.47,0.81,0.19,1.85-0.62,2.31c-0.81,0.47-1.85,0.19-2.31-0.62c-0.47-0.81-0.19-1.85,0.62-2.31
	C90.2,62.9,91.24,63.18,91.7,63.99"/>
<path class="st0" d="M34.74,48.73c0.47,0.81,0.19,1.85-0.62,2.31c-0.81,0.47-1.85,0.19-2.31-0.62c-0.47-0.81-0.19-1.85,0.62-2.31
	C33.24,47.64,34.28,47.92,34.74,48.73"/>
<path class="st0" d="M26.96,49.64c0.9,0.24,1.83-0.29,2.07-1.2c0.24-0.9-0.29-1.83-1.2-2.07c-0.9-0.24-1.83,0.29-2.07,1.2
	C25.52,48.47,26.06,49.39,26.96,49.64z"/>
<path class="st0" d="M61.5,34.67c0.9,0.24,1.83-0.29,2.07-1.2c0.24-0.9-0.29-1.83-1.2-2.07c-0.9-0.24-1.83,0.29-2.07,1.2
	C60.06,33.5,60.59,34.43,61.5,34.67z"/>
<path class="st0" d="M63.83,25.48c0.92,0.17,1.52,1.06,1.35,1.98c-0.17,0.92-1.06,1.52-1.98,1.35c-0.92-0.17-1.52-1.06-1.35-1.98
	C62.02,25.91,62.91,25.31,63.83,25.48"/>
<path class="st0" d="M64.65,22.91c0.9,0.24,1.83-0.29,2.07-1.2c0.24-0.9-0.29-1.83-1.2-2.07c-0.9-0.24-1.83,0.29-2.07,1.2
	C63.21,21.74,63.74,22.67,64.65,22.91z"/>
<path class="st0" d="M50.26,76.6c-0.9-0.24-1.83,0.29-2.07,1.2c-0.24,0.9,0.29,1.83,1.2,2.07c0.9,0.24,1.83-0.29,2.07-1.2
	C51.7,77.77,51.16,76.84,50.26,76.6z"/>
<path class="st0" d="M49.89,83.71c0.22,0.91-0.34,1.83-1.25,2.05c-0.91,0.22-1.82-0.34-2.05-1.24c-0.22-0.91,0.34-1.83,1.24-2.05
	C48.76,82.24,49.67,82.8,49.89,83.71"/>
<path class="st0" d="M47.11,88.36c-0.9-0.24-1.83,0.29-2.07,1.2c-0.24,0.9,0.29,1.83,1.2,2.07c0.9,0.24,1.83-0.29,2.07-1.2
	C48.55,89.53,48.02,88.6,47.11,88.36z"/>
<path class="st0" d="M79.93,48.7c0.48,0.8,0.23,1.84-0.57,2.33c-0.8,0.48-1.84,0.23-2.33-0.57c-0.48-0.8-0.23-1.84,0.57-2.33
	C78.4,47.64,79.45,47.9,79.93,48.7"/>
<path class="st0" d="M82.72,48.44c0.24,0.9,1.17,1.44,2.07,1.2c0.9-0.24,1.44-1.17,1.2-2.07c-0.24-0.9-1.17-1.44-2.07-1.2
	C83.02,46.61,82.48,47.54,82.72,48.44z"/>
<path class="st0" d="M90.68,48.06c0.9-0.24,1.44-1.17,1.2-2.07c-0.24-0.9-1.17-1.44-2.07-1.2c-0.9,0.24-1.44,1.17-1.2,2.07
	C88.85,47.77,89.77,48.3,90.68,48.06z"/>
<path class="st0" d="M34.91,61.25c-0.24-0.9-1.17-1.44-2.07-1.2c-0.9,0.24-1.44,1.17-1.2,2.07c0.24,0.9,1.17,1.44,2.07,1.2
	C34.62,63.08,35.16,62.15,34.91,61.25z"/>
<path class="st0" d="M29.04,62.83c-0.24-0.9-1.17-1.44-2.07-1.2c-0.9,0.24-1.44,1.17-1.2,2.07c0.24,0.9,1.17,1.44,2.07,1.2
	C28.74,64.66,29.28,63.73,29.04,62.83z"/>
<path class="st0" d="M23.21,64.71c0.07,0.93-0.63,1.75-1.56,1.82c-0.93,0.07-1.75-0.63-1.82-1.56c-0.07-0.93,0.63-1.75,1.56-1.82
	C22.32,63.08,23.14,63.78,23.21,64.71"/>
<path class="st0" d="M49.38,31.39c-0.9,0.24-1.44,1.17-1.2,2.07c0.24,0.9,1.17,1.44,2.07,1.2c0.9-0.24,1.44-1.17,1.2-2.07
	C51.22,31.69,50.29,31.15,49.38,31.39z"/>
<path class="st0" d="M48.69,28.79c0.9-0.24,1.44-1.17,1.2-2.07c-0.24-0.9-1.17-1.44-2.07-1.2c-0.9,0.24-1.44,1.17-1.2,2.07
	C46.85,28.49,47.78,29.03,48.69,28.79z"/>
<path class="st0" d="M62.37,79.87c0.9-0.24,1.44-1.17,1.2-2.07c-0.24-0.9-1.17-1.44-2.07-1.2c-0.9,0.24-1.44,1.17-1.2,2.07
	C60.54,79.58,61.47,80.11,62.37,79.87z"/>
<path class="st0" d="M63.95,85.75c0.9-0.24,1.44-1.17,1.2-2.07c-0.24-0.9-1.17-1.44-2.07-1.2c-0.9,0.24-1.44,1.17-1.2,2.07
	C62.12,85.45,63.05,85.99,63.95,85.75z"/>
<path class="st0" d="M64.65,88.36c-0.9,0.24-1.44,1.17-1.2,2.07c0.24,0.9,1.17,1.44,2.07,1.2c0.9-0.24,1.44-1.17,1.2-2.07
	C66.48,88.65,65.55,88.11,64.65,88.36z"/>
<path class="st0" d="M42.31,42.07c-7.48,7.48-7.48,19.65,0,27.13c3.74,3.74,8.65,5.61,13.56,5.61c4.91,0,9.83-1.87,13.56-5.61
	c7.48-7.48,7.48-19.65,0-27.13C61.96,34.59,49.79,34.59,42.31,42.07L42.31,42.07z M67.58,67.33c-6.45,6.45-16.95,6.45-23.4,0
	c-6.45-6.45-6.45-16.95,0-23.4c3.23-3.23,7.46-4.84,11.7-4.84c4.24,0,8.47,1.61,11.7,4.84C74.03,50.39,74.03,60.88,67.58,67.33
	L67.58,67.33z"/>
<path class="st0" d="M50.46,47.56l-4.28,7.42c-0.24,0.41-0.24,0.91,0,1.32l4.28,7.42c0.24,0.41,0.67,0.66,1.14,0.66h8.56
	c0.47,0,0.91-0.25,1.14-0.66l4.28-7.42c0.24-0.41,0.24-0.91,0-1.32l-4.28-7.42c-0.24-0.41-0.67-0.66-1.14-0.66H51.6
	C51.13,46.9,50.69,47.15,50.46,47.56z M59.4,49.54l3.52,6.1l-3.52,6.1h-7.04l-3.52-6.1l3.52-6.1H59.4z"/>
<path class="st0" d="M20.42,37.64l0.04-0.08c0.53-1.04,0.62-2.23,0.25-3.34c-0.37-1.11-1.14-2.01-2.18-2.54
	c-1.04-0.53-2.23-0.62-3.34-0.25c-1.11,0.36-2.01,1.14-2.54,2.18l-0.02,0.04c-0.87,1.7-0.55,3.74,0.8,5.09
	c0.32,0.32,0.69,0.59,1.1,0.8c0.63,0.32,1.31,0.48,1.99,0.48c0.45,0,0.91-0.07,1.35-0.21C18.98,39.45,19.89,38.68,20.42,37.64
	L20.42,37.64z M18.11,36.37l-0.04,0.07c-0.21,0.41-0.57,0.72-1.01,0.86c-0.44,0.14-0.91,0.1-1.33-0.11
	c-0.16-0.08-0.31-0.19-0.44-0.32c-0.53-0.53-0.66-1.35-0.32-2.02l0.02-0.05c0.21-0.41,0.57-0.72,1.01-0.87
	c0.18-0.06,0.36-0.09,0.54-0.09c0.27,0,0.53,0.06,0.78,0.19c0.41,0.21,0.72,0.57,0.87,1.01C18.35,35.49,18.32,35.96,18.11,36.37
	L18.11,36.37z"/>
<path class="st0" d="M24.66,28.85c1.17,0,2.27-0.45,3.09-1.28l0.05-0.05c1.7-1.7,1.7-4.47-0.01-6.18c-0.82-0.82-1.92-1.28-3.09-1.28
	h-0.01c-1.17,0-2.27,0.46-3.09,1.29l-0.03,0.03c-1.71,1.71-1.71,4.48,0,6.19C22.39,28.39,23.49,28.85,24.66,28.85L24.66,28.85z
	 M23.43,23.25l0.03-0.03c0.33-0.33,0.77-0.51,1.24-0.51h0c0.46,0,0.9,0.18,1.22,0.5c0.33,0.33,0.51,0.77,0.51,1.23
	c0,0.46-0.18,0.89-0.5,1.22l-0.05,0.05c-0.33,0.33-0.76,0.51-1.23,0.51c-0.46,0-0.9-0.18-1.23-0.51
	C22.75,25.02,22.75,23.92,23.43,23.25L23.43,23.25z"/>
<path class="st0" d="M12.96,44.4c-2.38-0.39-4.63,1.24-5.02,3.62L7.93,48.1c-0.22,1.38,0.24,2.8,1.23,3.79
	c0.65,0.65,1.48,1.08,2.4,1.22c0.23,0.04,0.47,0.06,0.7,0.06c0.91,0,1.8-0.29,2.56-0.83c0.95-0.69,1.57-1.7,1.76-2.85l0.01-0.05
	C16.97,47.04,15.34,44.79,12.96,44.4L12.96,44.4z M13.97,49.01l-0.01,0.06c-0.07,0.46-0.32,0.86-0.7,1.13
	c-0.38,0.27-0.84,0.38-1.29,0.31c-0.36-0.06-0.69-0.23-0.95-0.48c-0.4-0.4-0.58-0.95-0.49-1.5l0.01-0.07
	c0.14-0.85,0.88-1.46,1.71-1.46c0.09,0,0.19,0.01,0.28,0.02C13.48,47.16,14.13,48.06,13.97,49.01L13.97,49.01z"/>
<path class="st0" d="M45.87,15.1c0.83,0.83,1.96,1.29,3.11,1.29c0.23,0,0.46-0.02,0.69-0.05l0.07-0.01
	c1.15-0.19,2.16-0.82,2.84-1.78c0.67-0.95,0.94-2.11,0.75-3.26c-0.4-2.38-2.66-3.99-5.05-3.59v0c-0.01,0-0.02,0-0.03,0v0
	c-2.37,0.38-3.99,2.63-3.61,5.01C44.79,13.62,45.21,14.45,45.87,15.1L45.87,15.1z M48.68,10.3c0.01,0,0.01,0,0.02,0
	c0.01,0,0.02,0,0.02,0c0.95-0.16,1.85,0.48,2.01,1.42c0.08,0.46-0.03,0.92-0.3,1.3c-0.27,0.38-0.66,0.63-1.11,0.7l-0.06,0.01
	c-0.55,0.09-1.12-0.1-1.52-0.49c-0.26-0.26-0.42-0.58-0.48-0.94C47.1,11.35,47.74,10.45,48.68,10.3L48.68,10.3z"/>
<path class="st0" d="M32.72,19.41c0.84,0.84,1.96,1.28,3.09,1.28c0.68,0,1.37-0.16,2.01-0.49l0.02-0.01
	c1.04-0.53,1.82-1.43,2.18-2.54c0.36-1.11,0.28-2.3-0.25-3.34c-0.53-1.04-1.43-1.82-2.54-2.18c-1.11-0.36-2.3-0.28-3.35,0.25
	l-0.09,0.05c-1.04,0.54-1.81,1.45-2.16,2.56c-0.35,1.11-0.26,2.3,0.28,3.34C32.14,18.73,32.4,19.1,32.72,19.41L32.72,19.41z
	 M34.16,15.79c0.14-0.44,0.45-0.8,0.85-1.01l0.08-0.04c0.41-0.21,0.88-0.24,1.33-0.1c0.44,0.14,0.8,0.45,1.01,0.87
	c0.21,0.41,0.24,0.88,0.1,1.33s-0.45,0.8-0.88,1.01l-0.04,0.02c-0.68,0.35-1.49,0.22-2.03-0.31c-0.13-0.13-0.23-0.27-0.32-0.43
	C34.06,16.7,34.02,16.23,34.16,15.79L34.16,15.79z"/>
</svg>
