<?xml version="1.0" encoding="utf-8"?>
<!-- Generator: Adobe Illustrator 27.2.0, SVG Export Plug-In . SVG Version: 6.00 Build 0)  -->
<svg version="1.1" id="Layer_1" xmlns="http://www.w3.org/2000/svg" xmlns:xlink="http://www.w3.org/1999/xlink" x="0px" y="0px"
	 viewBox="0 0 200 200" style="enable-background:new 0 0 200 200;" xml:space="preserve">
<path d="M0,115.1h77.4c0,0,6.9,0.1,6.9,7s0,30.1,0,30.1s-0.1,6.7-6.3,6.7c-6.2,0-17.8,0-17.8,0s0.2-11-8.3-19.5s-17.3-7.8-19.1-7.8
	c-1.8,0-11.4-0.3-20.3,8.8c-6.2,6.3-7,15.4-7,18.5H0V115.1z"/>
<path d="M147.2,96.4c-11.8,0-21.3,9.6-21.3,21.3s9.6,21.3,21.3,21.3s21.3-9.6,21.3-21.3S158.9,96.4,147.2,96.4z M147.2,126.8
	c-5,0-9.1-4.1-9.1-9.1c0-5,4.1-9.1,9.1-9.1s9.1,4.1,9.1,9.1C156.3,122.7,152.2,126.8,147.2,126.8z"/>
<path d="M32.5,137.4c-11.8,0-21.3,9.6-21.3,21.3s9.6,21.3,21.3,21.3s21.3-9.6,21.3-21.3S44.3,137.4,32.5,137.4z M32.5,167.9
	c-5,0-9.1-4.1-9.1-9.1s4.1-9.1,9.1-9.1s9.1,4.1,9.1,9.1S37.6,167.9,32.5,167.9z"/>
<path d="M102.3,69.9c0,0,0-31.6,0-37.3s-8.2-4-8.2-4S4.5,40.8,2.6,41C0.8,41.2,0,38.4,0,38.4v41.9l18.4,23.5H7.3L0,94.4v15.6h49.6
	v-5L21.7,67.3l76.7-29.2v31.8C97,70,94.5,72,94.5,75.1s3.3,4.9,3.4,6.4c0.1,1.5-3.6,3.6-4.8,4.2c-1.2,0.6-9.7,6.4-3.2,14.6
	c6.6,8.2,13,2.9,13,2.9c-0.4-0.2-3-5-3-5s-5.4,0.2-5.4-4.1c0-4.3,8.5-11.6,8.5-11.6v-3c0,0,2.3-1,2.3-4.8
	C105.5,71.1,102.3,69.9,102.3,69.9z M38.8,103.6H27.7L5.5,75.2h11L38.8,103.6z M100.2,78.3c-1.8,0-3.3-1.5-3.3-3.3
	c0-1.8,1.5-3.3,3.3-3.3c1.8,0,3.3,1.5,3.3,3.3C103.5,76.8,102,78.3,100.2,78.3z"/>
<path d="M117.6,108.6c0,0-14.3-7.4-13.6-15.6c0.8-8.2,5.2-12.6,8.3-12.6c3.1,0,7.4-3.4,8.2-6.3c0,0,6.3,3.8,8.7,3.3
	c2.4-0.4,5.4-3.2,5.9-5.9l-9.3-4c0,0,2.6-5.5,21.3-1.5s43.8,15.5,45.9,15.3c2.1-0.2,6.9-1.3,6.9-1.3v77.2l-30-17.9
	c0,0,12.5-10.7,6.4-32.5c-6-21.8-32.3-20.6-34.9-19.9C139,87.8,123.1,91.3,117.6,108.6z"/>
</svg>
